<?xml version="1.0" encoding="UTF-8"?>
<svg width="216px" height="216px" viewBox="0 0 216 216" version="1.1" xmlns="http://www.w3.org/2000/svg" xmlns:xlink="http://www.w3.org/1999/xlink">
    <g id="Page-1" stroke="none" stroke-width="1" fill="none" fill-rule="evenodd">
        <g id="lunary-icon" transform="translate(0, 0)">
            <polygon id="Path" points="0 0 216 0 216 216 0 216"></polygon>
            <path d="M180,99 C178.920007,91.2133313 176.631007,83.8294446 173.328506,77.0423956 C162.796002,55.3967988 141.954846,39.8218266 117.146951,36.6124267 C88.2075599,32.8377394 59.8145615,46.7428754 45,71.9455449" id="Path" stroke="#121212" stroke-width="17" stroke-linecap="round" stroke-linejoin="round"></path>
            <path d="M36,117 C40.2675967,147.778692 63.5005293,172.483086 93.9095533,178.577265 C124.318577,184.671444 155.246758,170.821311 171,144.054934" id="Path" stroke="#121212" stroke-width="17" stroke-linecap="round" stroke-linejoin="round"></path>
            <path d="M161,144.5 C161,149.746705 165.253295,154 170.5,154 C175.746705,154 180,149.746705 180,144.5 C180,139.253295 175.746705,135 170.5,135 C165.253295,135 161,139.253295 161,144.5" id="Path" stroke="#121212" stroke-width="17" stroke-linecap="round" stroke-linejoin="round"></path>
            <path d="M36,72.5 C36,77.7467051 40.2532949,82 45.5,82 C50.7467051,82 55,77.7467051 55,72.5 C55,67.2532949 50.7467051,63 45.5,63 C40.2532949,63 36,67.2532949 36,72.5" id="Path" stroke="#121212" stroke-width="17" stroke-linecap="round" stroke-linejoin="round"></path>
            <path d="M108.5,136 C123.687831,136 136,123.687831 136,108.5 C136,93.3121694 123.687831,81 108.5,81 C93.3121694,81 81,93.3121694 81,108.5 C81,123.687831 93.3121694,136 108.5,136 Z" id="Path" stroke="#121212" stroke-width="17" stroke-linecap="round" stroke-linejoin="round"></path>
        </g>
    </g>
</svg>