<svg height="216" viewBox="0 0 216 216" width="216" xmlns="http://www.w3.org/2000/svg"><g fill="none" fill-rule="evenodd"><path d="m0 0h216v216h-216z"/><g stroke="#fff" stroke-linecap="round" stroke-linejoin="round" stroke-width="17"><path d="m180 99c-1.079993-7.7866687-3.368993-15.1705554-6.671494-21.9576044-10.532504-21.6455968-31.37366-37.220569-56.181555-40.4299689-28.9393911-3.7746873-57.3323895 10.1304487-72.146951 35.3331182"/><path d="m36 117c4.2675967 30.778692 27.5005293 55.483086 57.9095533 61.577265 30.4090237 6.094179 61.3372047-7.755954 77.0904467-34.522331"/><path d="m161 144.5c0 5.246705 4.253295 9.5 9.5 9.5s9.5-4.253295 9.5-9.5-4.253295-9.5-9.5-9.5-9.5 4.253295-9.5 9.5"/><path d="m36 72.5c0 5.2467051 4.2532949 9.5 9.5 9.5s9.5-4.2532949 9.5-9.5-4.2532949-9.5-9.5-9.5-9.5 4.2532949-9.5 9.5"/><path d="m108.5 136c15.187831 0 27.5-12.312169 27.5-27.5 0-15.1878306-12.312169-27.5-27.5-27.5-15.1878306 0-27.5 12.3121694-27.5 27.5 0 15.187831 12.3121694 27.5 27.5 27.5z"/></g></g></svg>